{
	"asset":{
		"generator":"Khronos glTF Blender I/O v4.2.70",
		"version":"2.0"
	},
	"scene":0,
	"scenes":[
		{
			"name":"Scene",
			"nodes":[
				0
			]
		}
	],
	"nodes":[
		{
			"mesh":0,
			"name":"f\u00f6ldszint padlo.001"
		}
	],
	"materials":[
		{
			"doubleSided":true,
			"name":"House2"
		},
		{
			"doubleSided":true,
			"name":"Street"
		},
		{
			"doubleSided":true,
			"name":"House3"
		},
		{
			"doubleSided":true,
			"name":"Ground"
		},
		{
			"doubleSided":true,
			"name":"Fence"
		},
		{
			"doubleSided":true,
			"name":"House_1"
		},
		{
			"doubleSided":true,
			"name":"Exterior_Grounds"
		},
		{
			"doubleSided":true,
			"name":"House_Interior"
		}
	],
	"meshes":[
		{
			"name":"Plane.003",
			"primitives":[
				{
					"attributes":{
						"POSITION":0,
						"NORMAL":1,
						"TEXCOORD_0":2
					},
					"indices":3,
					"material":0
				},
				{
					"attributes":{
						"POSITION":4,
						"NORMAL":5,
						"TEXCOORD_0":6
					},
					"indices":7,
					"material":1
				},
				{
					"attributes":{
						"POSITION":8,
						"NORMAL":9,
						"TEXCOORD_0":10
					},
					"indices":11,
					"material":2
				},
				{
					"attributes":{
						"POSITION":12,
						"NORMAL":13,
						"TEXCOORD_0":14
					},
					"indices":15,
					"material":3
				},
				{
					"attributes":{
						"POSITION":16,
						"NORMAL":17,
						"TEXCOORD_0":18
					},
					"indices":19,
					"material":4
				},
				{
					"attributes":{
						"POSITION":20,
						"NORMAL":21,
						"TEXCOORD_0":22
					},
					"indices":23,
					"material":5
				},
				{
					"attributes":{
						"POSITION":24,
						"NORMAL":25,
						"TEXCOORD_0":26
					},
					"indices":27,
					"material":6
				},
				{
					"attributes":{
						"POSITION":28,
						"NORMAL":29,
						"TEXCOORD_0":30
					},
					"indices":31,
					"material":7
				}
			]
		}
	],
	"accessors":[
		{
			"bufferView":0,
			"componentType":5126,
			"count":1211,
			"max":[
				5.887588977813721,
				3.80202054977417,
				2.988292694091797
			],
			"min":[
				-11.6537504196167,
				0.031363487243652344,
				-2.9155783653259277
			],
			"type":"VEC3"
		},
		{
			"bufferView":1,
			"componentType":5126,
			"count":1211,
			"type":"VEC3"
		},
		{
			"bufferView":2,
			"componentType":5126,
			"count":1211,
			"type":"VEC2"
		},
		{
			"bufferView":3,
			"componentType":5123,
			"count":2472,
			"type":"SCALAR"
		},
		{
			"bufferView":4,
			"componentType":5126,
			"count":72,
			"max":[
				15.833168029785156,
				0.00679624080657959,
				-5.448338508605957
			],
			"min":[
				-19.525224685668945,
				-0.025799155235290527,
				-10.959029197692871
			],
			"type":"VEC3"
		},
		{
			"bufferView":5,
			"componentType":5126,
			"count":72,
			"type":"VEC3"
		},
		{
			"bufferView":6,
			"componentType":5126,
			"count":72,
			"type":"VEC2"
		},
		{
			"bufferView":7,
			"componentType":5123,
			"count":108,
			"type":"SCALAR"
		},
		{
			"bufferView":8,
			"componentType":5126,
			"count":2720,
			"max":[
				8.361863136291504,
				3.813380718231201,
				3.128551483154297
			],
			"min":[
				-11.782196044921875,
				-0.4256887435913086,
				-3.0818943977355957
			],
			"type":"VEC3"
		},
		{
			"bufferView":9,
			"componentType":5126,
			"count":2720,
			"type":"VEC3"
		},
		{
			"bufferView":10,
			"componentType":5126,
			"count":2720,
			"type":"VEC2"
		},
		{
			"bufferView":11,
			"componentType":5123,
			"count":6852,
			"type":"SCALAR"
		},
		{
			"bufferView":12,
			"componentType":5126,
			"count":64084,
			"max":[
				15.088155746459961,
				-0.038420915603637695,
				18.6297664642334
			],
			"min":[
				-18.89557456970215,
				-0.038420915603637695,
				-15.353962898254395
			],
			"type":"VEC3"
		},
		{
			"bufferView":13,
			"componentType":5126,
			"count":64084,
			"type":"VEC3"
		},
		{
			"bufferView":14,
			"componentType":5126,
			"count":64084,
			"type":"VEC2"
		},
		{
			"bufferView":15,
			"componentType":5123,
			"count":373248,
			"type":"SCALAR"
		},
		{
			"bufferView":16,
			"componentType":5126,
			"count":1776,
			"max":[
				9.006759643554688,
				1.2359769344329834,
				17.254304885864258
			],
			"min":[
				-18.651565551757812,
				-0.09794050455093384,
				-3.3080122470855713
			],
			"type":"VEC3"
		},
		{
			"bufferView":17,
			"componentType":5126,
			"count":1776,
			"type":"VEC3"
		},
		{
			"bufferView":18,
			"componentType":5126,
			"count":1776,
			"type":"VEC2"
		},
		{
			"bufferView":19,
			"componentType":5123,
			"count":2664,
			"type":"SCALAR"
		},
		{
			"bufferView":20,
			"componentType":5126,
			"count":717,
			"max":[
				8.832474708557129,
				4.108774185180664,
				3.2657229900360107
			],
			"min":[
				-11.847898483276367,
				-0.1216888427734375,
				-3.265721082687378
			],
			"type":"VEC3"
		},
		{
			"bufferView":21,
			"componentType":5126,
			"count":717,
			"type":"VEC3"
		},
		{
			"bufferView":22,
			"componentType":5126,
			"count":717,
			"type":"VEC2"
		},
		{
			"bufferView":23,
			"componentType":5123,
			"count":1671,
			"type":"SCALAR"
		},
		{
			"bufferView":24,
			"componentType":5126,
			"count":116,
			"max":[
				7.007873058319092,
				0.04705810546875,
				9.859458923339844
			],
			"min":[
				-11.735906600952148,
				-0.8303794860839844,
				-5.94130802154541
			],
			"type":"VEC3"
		},
		{
			"bufferView":25,
			"componentType":5126,
			"count":116,
			"type":"VEC3"
		},
		{
			"bufferView":26,
			"componentType":5126,
			"count":116,
			"type":"VEC2"
		},
		{
			"bufferView":27,
			"componentType":5123,
			"count":204,
			"type":"SCALAR"
		},
		{
			"bufferView":28,
			"componentType":5126,
			"count":3544,
			"max":[
				6.087886333465576,
				3.536710739135742,
				2.9973607063293457
			],
			"min":[
				-6.089726448059082,
				-0.009261369705200195,
				-2.9906158447265625
			],
			"type":"VEC3"
		},
		{
			"bufferView":29,
			"componentType":5126,
			"count":3544,
			"type":"VEC3"
		},
		{
			"bufferView":30,
			"componentType":5126,
			"count":3544,
			"type":"VEC2"
		},
		{
			"bufferView":31,
			"componentType":5123,
			"count":5754,
			"type":"SCALAR"
		}
	],
	"bufferViews":[
		{
			"buffer":0,
			"byteLength":14532,
			"byteOffset":0,
			"target":34962
		},
		{
			"buffer":0,
			"byteLength":14532,
			"byteOffset":14532,
			"target":34962
		},
		{
			"buffer":0,
			"byteLength":9688,
			"byteOffset":29064,
			"target":34962
		},
		{
			"buffer":0,
			"byteLength":4944,
			"byteOffset":38752,
			"target":34963
		},
		{
			"buffer":0,
			"byteLength":864,
			"byteOffset":43696,
			"target":34962
		},
		{
			"buffer":0,
			"byteLength":864,
			"byteOffset":44560,
			"target":34962
		},
		{
			"buffer":0,
			"byteLength":576,
			"byteOffset":45424,
			"target":34962
		},
		{
			"buffer":0,
			"byteLength":216,
			"byteOffset":46000,
			"target":34963
		},
		{
			"buffer":0,
			"byteLength":32640,
			"byteOffset":46216,
			"target":34962
		},
		{
			"buffer":0,
			"byteLength":32640,
			"byteOffset":78856,
			"target":34962
		},
		{
			"buffer":0,
			"byteLength":21760,
			"byteOffset":111496,
			"target":34962
		},
		{
			"buffer":0,
			"byteLength":13704,
			"byteOffset":133256,
			"target":34963
		},
		{
			"buffer":0,
			"byteLength":769008,
			"byteOffset":146960,
			"target":34962
		},
		{
			"buffer":0,
			"byteLength":769008,
			"byteOffset":915968,
			"target":34962
		},
		{
			"buffer":0,
			"byteLength":512672,
			"byteOffset":1684976,
			"target":34962
		},
		{
			"buffer":0,
			"byteLength":746496,
			"byteOffset":2197648,
			"target":34963
		},
		{
			"buffer":0,
			"byteLength":21312,
			"byteOffset":2944144,
			"target":34962
		},
		{
			"buffer":0,
			"byteLength":21312,
			"byteOffset":2965456,
			"target":34962
		},
		{
			"buffer":0,
			"byteLength":14208,
			"byteOffset":2986768,
			"target":34962
		},
		{
			"buffer":0,
			"byteLength":5328,
			"byteOffset":3000976,
			"target":34963
		},
		{
			"buffer":0,
			"byteLength":8604,
			"byteOffset":3006304,
			"target":34962
		},
		{
			"buffer":0,
			"byteLength":8604,
			"byteOffset":3014908,
			"target":34962
		},
		{
			"buffer":0,
			"byteLength":5736,
			"byteOffset":3023512,
			"target":34962
		},
		{
			"buffer":0,
			"byteLength":3342,
			"byteOffset":3029248,
			"target":34963
		},
		{
			"buffer":0,
			"byteLength":1392,
			"byteOffset":3032592,
			"target":34962
		},
		{
			"buffer":0,
			"byteLength":1392,
			"byteOffset":3033984,
			"target":34962
		},
		{
			"buffer":0,
			"byteLength":928,
			"byteOffset":3035376,
			"target":34962
		},
		{
			"buffer":0,
			"byteLength":408,
			"byteOffset":3036304,
			"target":34963
		},
		{
			"buffer":0,
			"byteLength":42528,
			"byteOffset":3036712,
			"target":34962
		},
		{
			"buffer":0,
			"byteLength":42528,
			"byteOffset":3079240,
			"target":34962
		},
		{
			"buffer":0,
			"byteLength":28352,
			"byteOffset":3121768,
			"target":34962
		},
		{
			"buffer":0,
			"byteLength":11508,
			"byteOffset":3150120,
			"target":34963
		}
	],
	"buffers":[
		{
			"byteLength":3161628,
			"uri":"uploads_files_704847_ModernHouse_Baked.bin"
		}
	]
}
